#!OML:ASF H:\Pregnant\Project 1\Capture day 1\Session 1\femalepreg.ASF
:FULLY-SPECIFIED
:DEGREES
1552
root 9.85184 15.7292 5.86766 20.1741 -13.5918 -5.42964
lowerback -22.8941 0.576755 2.51916
upperback -6.68238 0.0059222 1.48027
thorax 5.43934 -0.0168355 0.158757
lowerneck -26.7319 5.69235 7.16914
upperneck 22.1157 5.20195 -0.516976
head 11.8853 2.88677 -0.430675
rclavicle 9.46712e-015 9.34288e-015
rhumerus -25.3868 17.81 -87.0759
rradius 66.9264
rwrist -24.3205
rhand -11.5233 -23.5724
rfingers 7.12502
rthumb 14.5164 -53.0446
lclavicle 9.46712e-015 9.34288e-015
lhumerus -18.1981 -15.9861 82.5258
lradius 67.7924
lwrist 49.8196
lhand -36.8676 -6.73157
lfingers 7.12502
lthumb -9.94693 23.0134
rfemur -38.1521 15.6968 22.0059
rtibia 36.1574
rfoot -13.9489 -2.70073
rtoes -6.22714
lfemur -16.1886 -11.2971 -16.868
ltibia 19.388
lfoot -14.857 14.145
ltoes -30.7148
1553
root 9.85057 15.7305 5.85713 20.1494 -13.5403 -5.3598
lowerback -22.7181 0.60704 2.47266
upperback -6.62525 0.0662281 1.42874
thorax 5.4131 0.0131227 0.145057
lowerneck -26.8625 5.65179 7.09568
upperneck 21.8258 5.15648 -0.502202
head 11.7919 2.858 -0.422352
rclavicle 6.69656e-015 2.98177e-014
rhumerus -24.2996 17.9433 -86.8335
rradius 67.4539
rwrist -24.9135
rhand -11.2691 -23.8885
rfingers 7.12502
rthumb 14.7612 -53.3429
lclavicle 6.69656e-015 2.98177e-014
lhumerus -16.8461 -16.1213 82.2604
lradius 68.1984
lwrist 50.0358
lhand -37.2373 -6.70731
lfingers 7.12502
lthumb -10.3035 23.0203
rfemur -38.2041 15.6959 21.9359
rtibia 36.1994
rfoot -13.9095 -2.77404
rtoes -6.30344
lfemur -16.2107 -11.3283 -16.9052
ltibia 19.3319
lfoot -14.7898 14.0923
ltoes -30.7598
1554
root 9.84949 15.7322 5.84573 20.1341 -13.488 -5.28469
lowerback -22.526 0.650566 2.42057
upperback -6.58297 0.145717 1.3773
thorax 5.36262 0.0521653 0.139397
lowerneck -26.9525 5.57662 6.97135
upperneck 21.5134 5.08466 -0.478091
head 11.6798 2.8145 -0.408484
rclavicle 1.04362e-015 -3.22031e-014
rhumerus -23.1849 17.9861 -86.55
rradius 67.996
rwrist -25.4781
rhand -10.9146 -24.1214
rfingers 7.12502
rthumb 15.1027 -53.5504
lclavicle 1.04362e-015 -3.22031e-014
lhumerus -15.4635 -16.2774 82.0398
lradius 68.5897
lwrist 50.2532
lhand -37.542 -6.61754
lfingers 7.12502
lthumb -10.5975 23.0953
rfemur -38.2737 15.7047 21.8523
rtibia 36.244
rfoot -13.8624 -2.85439
rtoes -6.38165
lfemur -16.2473 -11.3542 -16.945
ltibia 19.2721
lfoot -14.716 14.0307
ltoes -30.8053
1555
root 9.84857 15.7341 5.83362 20.1277 -13.4326 -5.20876
lowerback -22.3237 0.683811 2.35389
upperback -6.53413 0.213886 1.34266
thorax 5.31366 0.0858305 0.156866
lowerneck -27.0817 5.49696 6.81914
upperneck 21.2078 5.01563 -0.45657
head 11.5771 2.76948 -0.389766
rclavicle -2.43387e-014 -4.96962e-015
rhumerus -21.9791 17.9877 -86.2289
rradius 68.5347
rwrist -26.0325
rhand -10.459 -24.303
rfingers 7.12502
rthumb 15.5416 -53.6985
lclavicle -2.43387e-014 -4.96962e-015
lhumerus -14.0162 -16.3947 81.8391
lradius 68.9645
lwrist 50.4985
lhand -37.7981 -6.44302
lfingers 7.12502
lthumb -10.8446 23.257
rfemur -38.357 15.7266 21.7594
rtibia 36.2888
rfoot -13.8074 -2.94487
rtoes -6.44896
lfemur -16.2995 -11.3783 -16.9822
ltibia 19.214
lfoot -14.6405 13.9628
ltoes -30.8436
1556
root 9.84781 15.7363 5.82103 20.1327 -13.37 -5.13553
lowerback -22.1104 0.717848 2.28595
upperback -6.49639 0.283071 1.31644
thorax 5.24662 0.119848 0.183942
lowerneck -27.2315 5.42942 6.69377
upperneck 20.9052 4.96188 -0.473426
head 11.4823 2.72839 -0.386344
rclavicle -1.05729e-014 3.57812e-015
rhumerus -20.7326 17.9169 -85.8914
rradius 69.0842
rwrist -26.6082
rhand -9.94331 -24.5121
rfingers 7.12502
rthumb 16.0382 -53.8683
lclavicle -1.05729e-014 3.57812e-015
lhumerus -12.5462 -16.5087 81.6721
lradius 69.3393
lwrist 50.8041
lhand -38.02 -6.18268
lfingers 7.12502
lthumb -11.0585 23.506
rfemur -38.4535 15.7549 21.6636
rtibia 36.3315
rfoot -13.745 -3.04252
rtoes -6.50881
lfemur -16.3709 -11.3981 -17.0125
ltibia 19.1613
lfoot -14.564 13.8867
ltoes -30.884
